<?xml version="1.0" encoding="UTF-8" standalone="no"?>
<!DOCTYPE svg PUBLIC "-//W3C//DTD SVG 1.1//EN" "http://www.w3.org/Graphics/SVG/1.1/DTD/svg11.dtd">
<svg width="100%" height="100%" viewBox="0 0 2048 2048" version="1.1" xmlns="http://www.w3.org/2000/svg" xmlns:xlink="http://www.w3.org/1999/xlink" xml:space="preserve" xmlns:serif="http://www.serif.com/" style="fill-rule:evenodd;clip-rule:evenodd;stroke-linejoin:round;stroke-miterlimit:2;">
    <g id="レイヤー1">
        <path d="M1604.73,492.473L1263.74,492.473L1263.74,699.639L1604.73,699.639L1604.73,1328.86L1263.74,1328.86L1263.74,1541.09L1604.73,1541.09L1604.73,1819.63L1313.64,1819.63L1313.64,1681.08L819.517,1681.08L819.517,1819.63L488.072,1819.63L488.072,1541.09L888.648,1541.09L888.648,1328.86L488.072,1328.86L488.072,699.639L888.648,699.639L888.648,492.473L488.072,492.473L488.072,211.625L819.517,211.625L819.517,340.705L1313.64,340.705L1313.64,211.625L1604.73,211.625L1604.73,492.473ZM1313.64,914.672L819.517,914.672L819.517,1190.07L1313.64,1190.07L1313.64,914.672Z"/>
    </g>
</svg>
