<?xml version="1.0" encoding="UTF-8" standalone="no"?>
<!DOCTYPE svg PUBLIC "-//W3C//DTD SVG 1.1//EN" "http://www.w3.org/Graphics/SVG/1.1/DTD/svg11.dtd">
<svg width="100%" height="100%" viewBox="0 0 2048 2048" version="1.1" xmlns="http://www.w3.org/2000/svg" xmlns:xlink="http://www.w3.org/1999/xlink" xml:space="preserve" xmlns:serif="http://www.serif.com/" style="fill-rule:evenodd;clip-rule:evenodd;stroke-linejoin:round;stroke-miterlimit:2;">
    <g id="レイヤー1">
        <path d="M1249.16,215.624L1478.38,215.624L1478.38,1900.78L756.167,1900.78L756.167,1260.31C808.449,1295.29 876.448,1316.43 950.75,1316.43C1115.57,1316.43 1249.38,1212.36 1249.38,1084.16C1249.38,1081.15 1249.31,1078.15 1249.16,1075.16L1249.16,215.624ZM1144.95,215.624L1144.95,907.763C1092.72,872.94 1024.87,851.893 950.75,851.893C785.929,851.893 652.115,955.97 652.115,1084.16C652.115,1084.57 652.117,1084.98 652.12,1085.4L651.951,1085.4L651.951,1900.78L432.502,1900.78L432.502,215.624L1144.95,215.624Z"/>
    </g>
</svg>
