<?xml version="1.0" encoding="UTF-8" standalone="no"?>
<!DOCTYPE svg PUBLIC "-//W3C//DTD SVG 1.1//EN" "http://www.w3.org/Graphics/SVG/1.1/DTD/svg11.dtd">
<svg width="100%" height="100%" viewBox="0 0 2048 2048" version="1.1" xmlns="http://www.w3.org/2000/svg" xmlns:xlink="http://www.w3.org/1999/xlink" xml:space="preserve" xmlns:serif="http://www.serif.com/" style="fill-rule:evenodd;clip-rule:evenodd;stroke-linejoin:round;stroke-miterlimit:2;">
    <g id="レイヤー1">
        <path d="M1125.97,160.455L1130.09,654.588L1272.03,510.662L1270.42,160.455L1517.17,160.455L1517.17,1845.61L935.094,1845.61C991.785,1773.51 1100.68,1633.67 1158.4,1550.81C1191.94,1502.64 1265.57,1384.44 1262.59,1316.55C1259.52,1246.3 1212.66,1162.12 1160.48,1165.29C1092.72,1169.42 1121.94,1307.71 1089.92,1373.69C1053.03,1449.74 996.492,1543.73 939.094,1621.58C892.444,1684.85 791.329,1796.63 746.441,1845.61L471.297,1845.61L471.297,1461.37C546.612,1419.78 650.952,1357.38 700.753,1305.87C783.589,1220.18 880.582,1105.46 881.207,993.224C882.061,839.803 882.104,362.864 882.081,160.455L1125.97,160.455ZM758.344,160.455C756.782,355.051 752.56,851.094 749.003,996.515C747.433,1060.72 679.677,1134.5 631.652,1177.14C599.565,1205.62 529.949,1257.48 471.297,1300.14L471.297,160.455L758.344,160.455Z"/>
    </g>
</svg>
