<?xml version="1.0" encoding="UTF-8" standalone="no"?>
<!DOCTYPE svg PUBLIC "-//W3C//DTD SVG 1.1//EN" "http://www.w3.org/Graphics/SVG/1.1/DTD/svg11.dtd">
<svg width="100%" height="100%" viewBox="0 0 2048 2048" version="1.1" xmlns="http://www.w3.org/2000/svg" xmlns:xlink="http://www.w3.org/1999/xlink" xml:space="preserve" xmlns:serif="http://www.serif.com/" style="fill-rule:evenodd;clip-rule:evenodd;stroke-linejoin:round;stroke-miterlimit:2;">
    <g id="レイヤー1">
        <path d="M1140.58,176.463L1601.85,176.463L1601.85,1861.62L1373.31,1861.62C1373.69,1686.23 1374.46,1269.14 1373.4,1165.15C1373.13,1138.3 1325.93,1126.44 1302.91,1126.14C1279.89,1125.84 1235.65,1137.63 1235.28,1163.36C1233.73,1271.79 1231.84,1696.07 1231.15,1861.62L920.792,1861.62C921.177,1686.23 921.95,1269.14 920.886,1165.15C920.611,1138.3 873.412,1126.44 850.392,1126.14C827.372,1125.84 783.135,1137.63 782.767,1163.36C781.217,1271.79 779.328,1696.07 778.634,1861.62L555.976,1861.62L555.976,176.463L1005.93,176.463C1005.58,255.298 1003.81,654.662 1002.78,842.185C1002.6,876.126 955.471,910.726 955.669,929.104C955.957,955.959 1053.99,1000.17 1077.01,1000.45C1100.03,1000.74 1199.6,950.447 1199.16,924.72C1198.38,878.688 1146.1,877.031 1146.37,840.841C1147.82,646.828 1141.87,257.981 1140.58,176.463Z"/>
    </g>
</svg>
