<?xml version="1.0" encoding="UTF-8" standalone="no"?>
<!DOCTYPE svg PUBLIC "-//W3C//DTD SVG 1.1//EN" "http://www.w3.org/Graphics/SVG/1.1/DTD/svg11.dtd">
<svg width="100%" height="100%" viewBox="0 0 2048 2048" version="1.1" xmlns="http://www.w3.org/2000/svg" xmlns:xlink="http://www.w3.org/1999/xlink" xml:space="preserve" xmlns:serif="http://www.serif.com/" style="fill-rule:evenodd;clip-rule:evenodd;stroke-linejoin:round;stroke-miterlimit:2;">
    <g transform="matrix(-1,-0.000739117,0.000739117,-1,1943.52,2021.51)">
        <g id="レイヤー1">
            <path d="M449.196,1270.17L449.196,167.822L1495.07,167.822L1495.07,1852.97L449.196,1852.97L449.196,1445.51C518.289,1445.53 609.667,1445.6 649.363,1445.79C689.289,1445.98 738.945,1430.04 763.844,1398.83C792.431,1362.99 825.478,1288.04 823.866,1227.58C819.374,1059.14 826.175,345.717 826.175,345.717L683.185,348.705C683.185,348.705 680.283,1054.03 681.125,1201.75C681.211,1216.77 672.588,1231.69 662.406,1242.73C652.083,1253.92 636.028,1268.66 619.188,1268.9C589.755,1269.32 513.275,1269.81 449.196,1270.17ZM1278.53,341.414C1278.53,341.414 1279.67,1057.24 1276.72,1235.26C1274.12,1391.94 1061.3,1483.7 1016.16,1438.82C932.31,1355.47 1132.18,1169.24 1136.09,1026C1141.07,843.892 1137.36,342.879 1137.36,342.879L1278.53,341.414Z"/>
        </g>
    </g>
</svg>
