<?xml version="1.0" encoding="UTF-8" standalone="no"?>
<!DOCTYPE svg PUBLIC "-//W3C//DTD SVG 1.1//EN" "http://www.w3.org/Graphics/SVG/1.1/DTD/svg11.dtd">
<svg width="100%" height="100%" viewBox="0 0 2048 2048" version="1.1" xmlns="http://www.w3.org/2000/svg" xmlns:xlink="http://www.w3.org/1999/xlink" xml:space="preserve" xmlns:serif="http://www.serif.com/" style="fill-rule:evenodd;clip-rule:evenodd;stroke-linejoin:round;stroke-miterlimit:2;">
    <g transform="matrix(-1,-0.000220772,0.000220772,-1,1944.04,2021.01)">
        <g id="レイヤー1">
            <path d="M641.976,167.822L641.976,1852.97L449.196,1852.97L449.196,167.822L641.976,167.822ZM1495.07,671.806C1415.69,730.878 1250.71,859.205 1180.63,955.031C1086.02,1084.39 976.138,1261.8 973.153,1430.41C971.062,1548.49 971.318,1738.71 971.726,1852.97L789.23,1852.97L789.23,167.822L1495.07,167.822L1495.07,671.806ZM1116.56,1852.97C1116.47,1732.77 1116.19,1525.27 1115.32,1427.58C1114.51,1336.32 1189.65,1181.73 1242.55,1107.36C1330.21,984.16 1457.44,976.055 1495.07,976.531L1495.07,1852.97L1116.56,1852.97Z"/>
        </g>
    </g>
</svg>
