<?xml version="1.0" encoding="UTF-8" standalone="no"?>
<!DOCTYPE svg PUBLIC "-//W3C//DTD SVG 1.1//EN" "http://www.w3.org/Graphics/SVG/1.1/DTD/svg11.dtd">
<svg width="100%" height="100%" viewBox="0 0 2048 2048" version="1.1" xmlns="http://www.w3.org/2000/svg" xmlns:xlink="http://www.w3.org/1999/xlink" xml:space="preserve" xmlns:serif="http://www.serif.com/" style="fill-rule:evenodd;clip-rule:evenodd;stroke-linejoin:round;stroke-miterlimit:2;">
    <g id="レイヤー1">
        <path d="M1495.07,1558.1L1495.07,1852.97L449.196,1852.97L449.196,1558.1L848.06,1558.1L848.063,1558.99C848.23,1612.51 930.368,1664.87 972.073,1665.5C1013.78,1666.13 1099.14,1619.28 1098.3,1562.78C1098.28,1561.25 1098.25,1559.7 1098.23,1558.1L1495.07,1558.1ZM844.319,543.923C845.454,780.109 846.897,1200.51 847.672,1437.49L449.196,1437.49L449.196,543.923L844.319,543.923ZM1099.79,543.923L1495.07,543.923L1495.07,1437.49L1097.51,1437.49C1097.15,1198.24 1100.34,783.119 1099.79,543.923ZM1495.07,423.309L1098.93,423.309C1098.9,421.445 1098.87,419.595 1098.84,417.783C1097.92,363.768 1015.37,312.598 972.843,313.471C930.312,314.343 843.265,364.812 843.656,423.018L843.658,423.309L449.196,423.309L449.196,167.822L1495.07,167.822L1495.07,423.309Z"/>
    </g>
</svg>
