<?xml version="1.0" encoding="UTF-8" standalone="no"?>
<!DOCTYPE svg PUBLIC "-//W3C//DTD SVG 1.1//EN" "http://www.w3.org/Graphics/SVG/1.1/DTD/svg11.dtd">
<svg width="100%" height="100%" viewBox="0 0 2048 2048" version="1.1" xmlns="http://www.w3.org/2000/svg" xmlns:xlink="http://www.w3.org/1999/xlink" xml:space="preserve" xmlns:serif="http://www.serif.com/" style="fill-rule:evenodd;clip-rule:evenodd;stroke-linejoin:round;stroke-miterlimit:2;">
    <g id="レイヤー1">
        <path d="M1220.1,167.822L1495.07,167.822L1495.07,1852.97L1144.92,1852.97C1144.92,1852.48 1144.92,1851.99 1144.92,1851.49C1144.92,1741.78 1068.94,1652.7 975.361,1652.7C881.777,1652.7 805.798,1741.78 805.798,1851.49C805.798,1851.99 805.799,1852.48 805.803,1852.97L449.196,1852.97L449.196,167.822L719.213,167.822C718.901,361.965 718.029,960.73 718.792,1149.91C719.256,1265.16 896.918,1387.83 980.245,1388.96C1063.57,1390.1 1223.48,1273.75 1224.81,1162.7C1227.02,977.786 1221.9,369.076 1220.1,167.822ZM1087.59,167.822C1087.85,365.324 1088.61,932.617 1089.06,1080.93C1089.2,1128.13 1021.83,1175.12 983.067,1174.84C944.307,1174.57 856.752,1132.16 856.5,1079.3C855.768,925.705 843.647,334.004 840.193,167.822L1087.59,167.822Z"/>
    </g>
</svg>
