<?xml version="1.0" encoding="UTF-8" standalone="no"?>
<!DOCTYPE svg PUBLIC "-//W3C//DTD SVG 1.1//EN" "http://www.w3.org/Graphics/SVG/1.1/DTD/svg11.dtd">
<svg width="100%" height="100%" viewBox="0 0 2048 2048" version="1.1" xmlns="http://www.w3.org/2000/svg" xmlns:xlink="http://www.w3.org/1999/xlink" xml:space="preserve" xmlns:serif="http://www.serif.com/" style="fill-rule:evenodd;clip-rule:evenodd;stroke-linejoin:round;stroke-miterlimit:2;">
    <g id="レイヤー1">
        <path d="M1159.24,167.822C1160.17,294.738 1161.92,554.78 1161.21,635.282C1160.98,662.278 1206.98,680.158 1228.46,680.422C1249.94,680.685 1289.56,662.016 1290.1,636.862C1291.73,561.362 1291.83,299.705 1291.76,167.822L1495.07,167.822L1495.07,1852.97L1295.94,1852.97C1294.13,1676.02 1291.66,1441.45 1290.45,1363.47C1290.03,1336.02 1291.07,1305.22 1280.64,1281.68C1270.21,1258.14 1247.31,1240.55 1227.86,1222.23C1225.6,1220.11 1223.05,1217.76 1220.23,1215.19L1220.3,1215.16C1220.3,1215.16 899.372,922.126 851.46,877.321C833.187,860.232 813.093,839.678 800.581,822.142C788.234,804.836 777.892,763.266 777.939,743.622C778.154,652.733 775.244,319.319 773.865,167.822L1159.24,167.822ZM665.407,167.822C665.313,328.446 665.164,692.855 665.656,793.968C665.789,821.426 664.419,852.208 674.603,875.857C684.786,899.506 707.496,917.345 726.755,935.861C783.694,990.605 1081.95,1262.23 1081.95,1262.23L1082.27,1262.12C1091.24,1270.52 1098.59,1277.34 1103.78,1282.09C1122.23,1298.98 1142.54,1319.33 1155.24,1336.73C1167.77,1353.9 1178.55,1395.36 1178.71,1415C1179.27,1483.63 1183.08,1690.53 1186.19,1852.97L804.047,1852.97C801.656,1717.15 798.151,1507.12 798.026,1436.25C797.979,1409.25 751.788,1391.86 730.305,1391.82C708.823,1391.78 669.408,1410.87 669.13,1436.03C668.395,1502.55 670.382,1713.51 671.863,1852.97L449.196,1852.97L449.196,167.822L665.407,167.822Z"/>
    </g>
</svg>
