<?xml version="1.0" encoding="UTF-8" standalone="no"?>
<!DOCTYPE svg PUBLIC "-//W3C//DTD SVG 1.1//EN" "http://www.w3.org/Graphics/SVG/1.1/DTD/svg11.dtd">
<svg width="100%" height="100%" viewBox="0 0 2048 2048" version="1.1" xmlns="http://www.w3.org/2000/svg" xmlns:xlink="http://www.w3.org/1999/xlink" xml:space="preserve" xmlns:serif="http://www.serif.com/" style="fill-rule:evenodd;clip-rule:evenodd;stroke-linejoin:round;stroke-miterlimit:2;">
    <g id="レイヤー1">
        <path d="M1045.87,167.822L1047.84,598.306C1047.84,598.306 668.073,669.281 672.06,980.872C676.714,1344.53 1071.41,1440.3 1071.41,1440.3L1072.81,1852.97L449.196,1852.97L449.196,167.822L1045.87,167.822ZM1177.45,167.822L1495.07,167.822L1495.07,1852.97L1183.74,1852.97C1183.98,1743.27 1186.63,1496.5 1184.72,1437.76C1182.85,1380.41 1182.27,1320.84 1114.11,1320.8C1029.58,1320.75 769.617,1226.64 769.458,978.47C769.335,786.814 1028.05,696.206 1112.88,694.585C1179.91,693.305 1183.08,620.105 1183.41,595.822C1184.33,526.924 1179.71,281.216 1177.45,167.822Z"/>
    </g>
</svg>
