<?xml version="1.0" encoding="UTF-8" standalone="no"?>
<!DOCTYPE svg PUBLIC "-//W3C//DTD SVG 1.1//EN" "http://www.w3.org/Graphics/SVG/1.1/DTD/svg11.dtd">
<svg width="100%" height="100%" viewBox="0 0 2048 2048" version="1.1" xmlns="http://www.w3.org/2000/svg" xmlns:xlink="http://www.w3.org/1999/xlink" xml:space="preserve" xmlns:serif="http://www.serif.com/" style="fill-rule:evenodd;clip-rule:evenodd;stroke-linejoin:round;stroke-miterlimit:2;">
    <g transform="matrix(-1,-3.88578e-16,3.88578e-16,-1,1904.97,2006.02)">
        <path d="M916.471,1852.97L449.196,1852.97L449.196,1104.68L651.786,1104.32C651.786,1104.32 682.42,641.493 988.547,631.977C1274.09,623.1 1293.76,1099.36 1293.76,1099.36L1495.07,1099.62L1495.07,1852.97L1060.06,1852.97C1059.63,1658.15 1058.15,1069.06 1055.51,919.244C1055.03,892.217 1006.88,881.818 983.564,881.83C960.252,881.841 915.593,892.752 915.639,919.313C915.91,1075.57 916.355,1688.46 916.471,1852.97ZM916.206,167.822C916.337,333.891 916.444,483.36 916.483,539.662C631.855,598.095 594.88,995.739 594.88,995.739L449.196,1001.49L449.196,167.822L916.206,167.822ZM1495.07,976.323L1404.28,976.552C1404.28,976.552 1339.29,595.921 1060.1,539.485C1059.94,468.625 1059.61,324.51 1059.09,167.822L1495.07,167.822L1495.07,976.323Z"/>
    </g>
</svg>
