<?xml version="1.0" encoding="UTF-8" standalone="no"?>
<!DOCTYPE svg PUBLIC "-//W3C//DTD SVG 1.1//EN" "http://www.w3.org/Graphics/SVG/1.1/DTD/svg11.dtd">
<svg width="100%" height="100%" viewBox="0 0 2048 2048" version="1.1" xmlns="http://www.w3.org/2000/svg" xmlns:xlink="http://www.w3.org/1999/xlink" xml:space="preserve" xmlns:serif="http://www.serif.com/" style="fill-rule:evenodd;clip-rule:evenodd;stroke-linejoin:round;stroke-miterlimit:2;">
    <g transform="matrix(-1,-1.22465e-16,1.22465e-16,-1,1977.72,2010.68)">
        <path d="M1495.07,167.822L449.196,167.822L449.196,1852.97L1495.07,1852.97L1495.07,167.822ZM675.273,321.023C675.273,321.023 1132.97,317.773 1234.28,320.975C1277.06,322.327 1313.95,378.609 1314.28,421.408C1315.91,630.356 1315.67,1368.09 1314.01,1575.23C1313.66,1619.26 1296.77,1690.57 1252.77,1692.28C1160.81,1695.85 850.43,1697.25 750.611,1694.2C695.411,1692.52 644.767,1623.42 643.017,1568.22C640.022,1473.72 643.838,1202.53 643.986,1142.48C644.068,1109.26 685.341,1070.79 720.481,1069.89C796.639,1067.94 1017.43,1071.88 1101.61,1069.4C1164.55,1067.54 1214.01,977.728 1214.9,913.493C1216.19,821.106 1215.82,602.895 1213.06,523.04C1211.48,477.104 1171.48,415.022 1125.52,414.739C1031.11,414.156 674.791,413.523 674.791,413.523L675.273,321.023Z" style="fill-opacity:0.99;"/>
    </g>
</svg>
