<?xml version="1.0" encoding="UTF-8" standalone="no"?>
<!DOCTYPE svg PUBLIC "-//W3C//DTD SVG 1.1//EN" "http://www.w3.org/Graphics/SVG/1.1/DTD/svg11.dtd">
<svg width="100%" height="100%" viewBox="0 0 2048 2048" version="1.1" xmlns="http://www.w3.org/2000/svg" xmlns:xlink="http://www.w3.org/1999/xlink" xml:space="preserve" xmlns:serif="http://www.serif.com/" style="fill-rule:evenodd;clip-rule:evenodd;stroke-linecap:round;stroke-linejoin:round;stroke-miterlimit:1.5;">
    <g id="レイヤー1">
        <path d="M1495.07,863.68C1443.43,865.345 1401.84,931.906 1401.84,1013.65C1401.84,1095.4 1443.43,1161.96 1495.07,1163.63L1495.07,1852.97L1068.25,1852.97C1066.14,1735.84 1062.34,1510.93 1062.9,1441.79C1063.2,1405.21 1001.24,1380.88 971.381,1381.25C941.519,1381.62 884.311,1408.09 883.732,1444.03C882.702,1508.03 884.879,1735.33 886.125,1852.97L449.196,1852.97L449.196,1163.65C501.43,1163.07 543.716,1096.08 543.716,1013.65C543.716,931.228 501.43,864.24 449.196,863.653L449.196,167.822L878.073,167.822C880.208,287.194 883.8,502.332 883.249,569.679C882.951,606.255 944.91,630.589 974.772,630.216C1004.63,629.842 1061.84,603.37 1062.42,567.438C1063.42,505.082 1061.38,287.713 1060.13,167.822L1495.07,167.822L1495.07,863.68ZM1049.23,883.063C1049.97,930.677 1051.45,1092.88 1050.74,1140.17C1050.35,1166.48 1002.55,1171.56 978.197,1171.32C953.845,1171.08 904.518,1165.53 904.628,1138.71C904.824,1091.1 903.407,928.899 904.132,881.494C904.534,855.22 951.935,849.101 976.118,849.363C1000.3,849.624 1048.81,856.232 1049.23,883.063Z" style="stroke:black;stroke-width:10px;"/>
    </g>
</svg>
