<?xml version="1.0" encoding="UTF-8" standalone="no"?>
<!DOCTYPE svg PUBLIC "-//W3C//DTD SVG 1.1//EN" "http://www.w3.org/Graphics/SVG/1.1/DTD/svg11.dtd">
<svg width="100%" height="100%" viewBox="0 0 2048 2048" version="1.1" xmlns="http://www.w3.org/2000/svg" xmlns:xlink="http://www.w3.org/1999/xlink" xml:space="preserve" xmlns:serif="http://www.serif.com/" style="fill-rule:evenodd;clip-rule:evenodd;stroke-linecap:round;stroke-linejoin:round;stroke-miterlimit:1.5;">
    <g id="レイヤー1">
        <path d="M1495.07,433.814C1382.77,434.381 1067.91,435.944 991.438,436.037C954.399,436.083 946.781,503.638 945.75,537.327C944.719,571.016 949.149,638.271 985.25,638.169C1068.09,637.936 1366.68,637.536 1495.07,637.371L1495.07,1382.41C1382.77,1382.98 1067.91,1384.54 991.438,1384.64C954.399,1384.68 946.781,1452.24 945.75,1485.93C944.719,1519.62 949.149,1586.87 985.25,1586.77C1068.09,1586.54 1366.68,1586.13 1495.07,1585.97L1495.07,1852.97L449.196,1852.97L449.196,1535.44C472.386,1461.82 508.479,1357.99 540.053,1313.34C574.02,1265.31 730.196,1180.88 730.196,1180.88L730.196,871.481C730.196,871.481 574.02,787.052 540.053,739.019C508.479,694.369 472.386,590.538 449.196,516.925L449.196,167.822L1495.07,167.822L1495.07,433.814Z" style="stroke:black;stroke-width:10px;"/>
    </g>
</svg>
