<?xml version="1.0" encoding="UTF-8" standalone="no"?>
<!DOCTYPE svg PUBLIC "-//W3C//DTD SVG 1.1//EN" "http://www.w3.org/Graphics/SVG/1.1/DTD/svg11.dtd">
<svg width="100%" height="100%" viewBox="0 0 2048 2048" version="1.1" xmlns="http://www.w3.org/2000/svg" xmlns:xlink="http://www.w3.org/1999/xlink" xml:space="preserve" xmlns:serif="http://www.serif.com/" style="fill-rule:evenodd;clip-rule:evenodd;stroke-linecap:round;stroke-linejoin:round;stroke-miterlimit:1.5;">
    <g id="レイヤー1">
        <path d="M622.934,167.822C625.389,396.609 632.281,1054.31 632.152,1211.9C632.137,1230.15 660.215,1244.39 677.078,1243.19C693.94,1241.98 718.552,1221.93 733.328,1204.67C803.906,1122.2 1100.55,748.371 1100.55,748.371C1100.55,748.371 930.49,746.151 878.858,745.847C853.134,745.695 820.723,714.076 803.025,691.001C785.328,667.926 772.677,634.577 772.671,607.398C772.657,533.739 774.077,283.254 774.756,167.822L1495.07,167.822L1495.07,1852.97L1310.73,1852.97C1308.16,1611.91 1301.55,978.077 1301.68,823.757C1301.69,805.509 1273.61,791.268 1256.75,792.475C1239.89,793.681 1215.28,813.729 1200.5,830.995C1129.92,913.464 833.281,1287.29 833.281,1287.29C833.281,1287.29 1003.34,1289.51 1054.97,1289.81C1080.69,1289.97 1113.11,1321.59 1130.8,1344.66C1148.5,1367.74 1161.15,1401.08 1161.16,1428.26C1161.17,1498.9 1159.87,1732.17 1159.16,1852.97L449.196,1852.97L449.196,167.822L622.934,167.822Z" style="stroke:black;stroke-width:10px;"/>
    </g>
</svg>
