<?xml version="1.0" encoding="UTF-8" standalone="no"?>
<!DOCTYPE svg PUBLIC "-//W3C//DTD SVG 1.1//EN" "http://www.w3.org/Graphics/SVG/1.1/DTD/svg11.dtd">
<svg width="100%" height="100%" viewBox="0 0 2048 2048" version="1.1" xmlns="http://www.w3.org/2000/svg" xmlns:xlink="http://www.w3.org/1999/xlink" xml:space="preserve" xmlns:serif="http://www.serif.com/" style="fill-rule:evenodd;clip-rule:evenodd;stroke-linecap:round;stroke-linejoin:round;stroke-miterlimit:1.5;">
    <g id="レイヤー1">
        <path d="M634.761,167.822C636.865,346.436 642.357,830.296 642.037,988.091C641.864,1073.15 668.386,1163.98 702.849,1235.9C736.65,1306.44 848.818,1419.65 848.818,1419.65L1023.88,1171.34C1023.88,1171.34 924.825,1162.93 896.032,1135.57C858.428,1099.83 803.317,1004.28 801.828,936.407C798.728,795.163 792.397,324.277 790.328,167.822L1495.07,167.822L1495.07,1852.97L1327.76,1852.97C1325.56,1665.5 1320.31,1199.19 1320.62,1044.85C1320.8,959.794 1294.28,868.964 1259.81,797.038C1226.01,726.495 1113.84,613.294 1113.84,613.294L938.781,861.597C938.781,861.597 1037.84,870.006 1066.63,897.371C1104.23,933.11 1159.34,1028.66 1160.83,1096.53C1163.86,1234.29 1169.95,1685.59 1172.17,1852.97L449.196,1852.97L449.196,167.822L634.761,167.822Z" style="stroke:black;stroke-width:10px;"/>
    </g>
</svg>
