<?xml version="1.0" encoding="UTF-8" standalone="no"?>
<!DOCTYPE svg PUBLIC "-//W3C//DTD SVG 1.1//EN" "http://www.w3.org/Graphics/SVG/1.1/DTD/svg11.dtd">
<svg width="100%" height="100%" viewBox="0 0 2048 2048" version="1.1" xmlns="http://www.w3.org/2000/svg" xmlns:xlink="http://www.w3.org/1999/xlink" xml:space="preserve" xmlns:serif="http://www.serif.com/" style="fill-rule:evenodd;clip-rule:evenodd;stroke-linecap:round;stroke-linejoin:round;stroke-miterlimit:1.5;">
    <g id="レイヤー1">
        <path d="M1495.07,167.822L449.196,167.822L449.196,1852.97L1495.07,1852.97L1495.07,167.822ZM1095.45,597.847C1119.22,597.866 1139.71,597.912 1154.88,597.995C1207.84,598.284 1257.16,635.572 1295.28,672.33C1336.01,711.607 1372.24,833.771 1399.25,833.659C1426.26,833.547 1447.06,724.734 1447.48,681.076C1447.79,648.044 1445.92,607.715 1415.03,587.437C1391.8,572.185 1351.24,576.655 1335.17,557.819C1319.09,538.984 1318.57,474.426 1318.57,474.426L622.903,471.435L630.827,1650.06L1036.38,1655.9C1036.38,1655.9 1015.99,1592.6 996.179,1567.91C976.372,1543.22 946.208,1513.92 917.603,1513.02C883.125,1511.94 789.104,1511.35 789.104,1511.35C789.104,1511.35 782.982,1485.26 774.774,1476.02C767.291,1467.6 739.854,1455.91 739.854,1455.91L740.33,1231.11C774.29,1231.26 841.109,1231.57 883.639,1231.92C956.349,1232.52 1066.21,1322.96 1127.54,1384.01C1255.39,1511.27 1220.95,1595.89 1259.11,1595.82C1295.46,1595.75 1334.97,1535.24 1332.07,1485.72C1327.95,1415.28 1201.29,1272.66 1103.26,1202.24C1040.94,1157.48 976.052,1130.73 917.907,1114.88L917.341,1006.98L1095.47,1007.4L1095.45,597.847ZM976.145,597.91C976.555,680.721 977.304,856.122 976.609,909.781C975.97,959.038 880.099,952.657 855.341,971.837C841.422,982.619 827.613,1004.99 828.06,1024.86C828.392,1039.64 828.336,1070.84 828.207,1097.27C789.506,1092.51 758.654,1092.3 740.623,1092.84L741.67,598.44C741.67,598.44 861.409,598.07 976.145,597.91Z" style="stroke:black;stroke-width:10px;"/>
    </g>
</svg>
