<?xml version="1.0" encoding="UTF-8" standalone="no"?>
<!DOCTYPE svg PUBLIC "-//W3C//DTD SVG 1.1//EN" "http://www.w3.org/Graphics/SVG/1.1/DTD/svg11.dtd">
<svg width="100%" height="100%" viewBox="0 0 2048 2048" version="1.1" xmlns="http://www.w3.org/2000/svg" xmlns:xlink="http://www.w3.org/1999/xlink" xml:space="preserve" xmlns:serif="http://www.serif.com/" style="fill-rule:evenodd;clip-rule:evenodd;stroke-linecap:round;stroke-linejoin:round;stroke-miterlimit:1.5;">
    <g id="レイヤー1">
        <path d="M1495.07,167.822L449.196,167.822L449.196,1852.97L1495.07,1852.97L1495.07,167.822ZM1318.51,553.287L1394.58,553.01L1389.88,447.759L642.203,444.256L640.771,1631.75L1326.62,1638.85C1326.62,1638.85 1307.93,1563.35 1285.2,1540.36C1262.47,1517.37 1190.24,1500.89 1190.24,1500.89L1124.68,1500.05L1120.34,1219.29L997.938,1282.06L994.701,1498.38L826.281,1496.22C826.281,1496.22 801.455,1461.21 786.616,1449.46C772.301,1438.12 737.247,1425.72 737.247,1425.72L737.344,555.402L1182.81,553.781C1181.08,613.24 1172.66,724.875 1135.31,794.756C1095.32,869.598 990.62,950.845 925.801,961.986C890.466,968.059 858.875,1009.77 866.16,1048.99C874.191,1092.22 932.951,1129.11 971.125,1117.37C1030.68,1099.06 1179.06,1015.61 1231.4,937.282C1315.31,811.699 1320.27,627.092 1318.51,553.287Z" style="stroke:black;stroke-width:10px;"/>
    </g>
</svg>
