<?xml version="1.0" encoding="UTF-8" standalone="no"?>
<!DOCTYPE svg PUBLIC "-//W3C//DTD SVG 1.1//EN" "http://www.w3.org/Graphics/SVG/1.1/DTD/svg11.dtd">
<svg width="100%" height="100%" viewBox="0 0 2048 2048" version="1.1" xmlns="http://www.w3.org/2000/svg" xmlns:xlink="http://www.w3.org/1999/xlink" xml:space="preserve" xmlns:serif="http://www.serif.com/" style="fill-rule:evenodd;clip-rule:evenodd;stroke-linecap:round;stroke-linejoin:round;stroke-miterlimit:1.5;">
    <g id="レイヤー1">
        <path d="M1495.07,167.822L449.196,167.822L449.196,1852.97L1495.07,1852.97L1495.07,167.822ZM625.483,1410.63C625.483,1410.63 695.419,1408.78 718.872,1410.19C739.244,1411.41 754.913,1437.33 765.104,1453.59C775.05,1469.46 780.023,1507.76 780.023,1507.76C780.023,1507.76 1100.59,1511.6 1183.08,1514.32C1217.47,1515.46 1255.07,1537.39 1276.65,1557.93C1297.74,1578 1309.55,1642.35 1309.55,1642.35L627.02,1635.14L625.483,1410.63ZM909.056,1261.14C957.736,1260.22 1130.74,1259.41 1184.06,1260.85C1205.88,1261.44 1217.44,1298.68 1217.91,1316.89C1218.39,1335.1 1207.43,1369.32 1186.92,1370.09C1135.75,1372.02 962.127,1370.1 910.952,1369.79C889.882,1369.66 878.21,1334.02 877.895,1315.91C877.579,1297.81 888.056,1261.54 909.056,1261.14ZM1291.19,464.178L1290.72,566.586L734.705,563.678L728.89,972.745C728.89,972.745 1007.56,975.783 1081.16,974.742C1127.29,974.089 1174.45,898.458 1174.85,872.857C1175.27,845.59 1175.12,771.313 1175.12,771.313L1321.94,774.266C1321.94,774.266 1274.06,1126.81 1086.21,1129.85C988.298,1131.44 619.085,1125.2 619.085,1125.2L617.219,461.718L1291.19,464.178Z" style="stroke:black;stroke-width:10px;"/>
    </g>
</svg>
