<?xml version="1.0" encoding="UTF-8" standalone="no"?>
<!DOCTYPE svg PUBLIC "-//W3C//DTD SVG 1.1//EN" "http://www.w3.org/Graphics/SVG/1.1/DTD/svg11.dtd">
<svg width="100%" height="100%" viewBox="0 0 2048 2048" version="1.1" xmlns="http://www.w3.org/2000/svg" xmlns:xlink="http://www.w3.org/1999/xlink" xml:space="preserve" xmlns:serif="http://www.serif.com/" style="fill-rule:evenodd;clip-rule:evenodd;stroke-linecap:round;stroke-linejoin:round;stroke-miterlimit:1.5;">
    <g id="レイヤー1">
        <path d="M1495.07,167.822L449.196,167.822L449.196,1852.97L1495.07,1852.97L1495.07,167.822ZM1348.73,1120.96C1347.92,1225.99 1345.35,1456.19 1344.5,1536.56C1344.12,1571.95 1296.78,1608.75 1261.38,1608.09C1155.9,1606.12 816.644,1604.68 716.875,1601.58C691.258,1600.79 659.345,1566.07 659.656,1550.22C659.967,1534.38 694.243,1506.47 718.741,1506.51C788.795,1506.64 997.565,1506.8 1058.57,1506.96C1077.25,1507 1092.29,1487.81 1093.13,1471.27C1095.12,1431.97 1091.96,1285.68 1091.96,1285.68L1206.85,1285.99C1206.85,1285.99 1211.75,1175.26 1210.73,1143.32C1210.11,1123.98 1191.29,1100.62 1171.97,1100.19C1125.65,1099.14 969.51,1098.29 906.546,1099.91C773.046,1103.35 771.329,1260.64 771.329,1260.64L812.844,1261.06C812.844,1261.06 792.228,1303.24 792.018,1322.65C791.803,1342.58 791.725,1376.95 791.725,1376.95L644.063,1377.84C644.063,1377.84 652.691,956.144 873.094,957.696C974.831,958.413 1189.16,960.436 1267.17,960.914C1327.19,961.282 1349.2,1061.08 1348.73,1120.96ZM703.313,815.574L1371.77,815.756L1379.05,340.286C1379.05,340.286 1227.11,339.307 1196.66,339.634C1114.14,340.517 1060.54,702.614 1060.54,702.614C1060.54,702.614 846.74,703.462 784.905,705.285C739.195,706.632 703.313,815.574 703.313,815.574Z" style="stroke:black;stroke-width:10px;"/>
    </g>
</svg>
