<?xml version="1.0" encoding="UTF-8" standalone="no"?>
<!DOCTYPE svg PUBLIC "-//W3C//DTD SVG 1.1//EN" "http://www.w3.org/Graphics/SVG/1.1/DTD/svg11.dtd">
<svg width="100%" height="100%" viewBox="0 0 2048 2048" version="1.1" xmlns="http://www.w3.org/2000/svg" xmlns:xlink="http://www.w3.org/1999/xlink" xml:space="preserve" xmlns:serif="http://www.serif.com/" style="fill-rule:evenodd;clip-rule:evenodd;stroke-linecap:round;stroke-linejoin:round;stroke-miterlimit:1.5;">
    <g id="レイヤー1">
        <path d="M1495.07,167.822L449.196,167.822L449.196,1852.97L1495.07,1852.97L1495.07,167.822ZM942.889,509.714C1073.61,509.319 1204.59,508.694 1204.59,508.694L1205.42,1469.21C1205.42,1469.21 892.493,1469.15 818.156,1468.08C781.833,1467.56 771.249,1406.84 769.531,1370.55C761.814,1207.55 902.688,1063.59 1029,1061.09C1049.39,1060.68 1084.46,1033.54 1085.24,992.58C1086.06,949.31 1045.87,922.129 1014.19,921.726C788.003,918.848 632.222,1167.24 632.381,1294.36C632.511,1398.86 634.633,1583.3 634.633,1583.3L1313.75,1587.01L1313.27,363.503L610.254,359.828C610.254,359.828 647.344,509.415 704.084,509.856C728.846,510.048 773.238,510.068 825.731,509.991L828.093,790.241C828.093,790.241 943.502,750.588 943.406,702.236C943.312,654.929 943.04,560.652 942.889,509.714Z" style="stroke:black;stroke-width:10px;"/>
    </g>
</svg>
