<?xml version="1.0" encoding="UTF-8" standalone="no"?>
<!DOCTYPE svg PUBLIC "-//W3C//DTD SVG 1.1//EN" "http://www.w3.org/Graphics/SVG/1.1/DTD/svg11.dtd">
<svg width="100%" height="100%" viewBox="0 0 2048 2048" version="1.1" xmlns="http://www.w3.org/2000/svg" xmlns:xlink="http://www.w3.org/1999/xlink" xml:space="preserve" xmlns:serif="http://www.serif.com/" style="fill-rule:evenodd;clip-rule:evenodd;stroke-linecap:round;stroke-linejoin:round;stroke-miterlimit:1.5;">
    <g id="レイヤー1">
        <path d="M1495.07,167.822L449.196,167.822L449.196,1852.97L1495.07,1852.97L1495.07,167.822ZM853.116,1444.76C780.484,1444.57 716.751,1444.42 685.813,1444.37C638.221,1444.29 652.656,1583.24 652.656,1583.24L1341.45,1587.83L1316.41,371.479L915.531,367.721C915.531,367.721 934.26,509.846 986.148,510.941C1041.23,512.104 1191.75,510.429 1191.75,510.429L1197,804.381C970.633,794.478 826.706,688.308 759.594,588.588C697.893,496.907 682.267,416.549 682.267,416.549C682.267,416.549 615.444,502.068 617.398,552.129C624.4,731.475 912.598,954.608 1200.04,974.874L1208.43,1445.71C1208.43,1445.71 1096.26,1445.4 973.905,1445.07C974.415,1365.43 975.293,1209.6 974.73,1157.08C974.222,1109.73 849.484,1089.99 849.484,1089.99L853.116,1444.76Z" style="stroke:black;stroke-width:10px;"/>
    </g>
</svg>
